# xmcd
#
# Track frame offsets: 
#        150
#        20002
#        35865
#        53550
#        66170
#        81235
#        94955
#        114152
#        127965
#        146837
#        162940
#        177842
#        189060
#        202012
#        220892
#        237840
#        251880
#
# Disc length: 3610 seconds
#
# Revision: 0
# Processed by: cddbd v1.5.2PL0 Copyright (c) Steve Scherf et al.
# Submitted via: ExactAudioCopy v1.0b3
#
DISCID=f30e1811
DTITLE=Demis Roussos - Man Of The World
DYEAR=1980
DGENRE=Pop
TTITLE0=Man Of The World - Slacham Dance
TTITLE1=Lost In Love
TTITLE2=Miss You Nights
TTITLE3=Little Girl
TTITLE4=I Need You
TTITLE5=I'd Give My Life
TTITLE6=Sorry
TTITLE7=How Glad I Am You Came
TTITLE8=San Pedros Children
TTITLE9=The Wedding Song
TTITLE10=Love It Away
TTITLE11=We're Over
TTITLE12=No Love Today
TTITLE13=Highway Home
TTITLE14=Love Is The Answer
TTITLE15=Had To Run
TTITLE16=Winter In America
EXTD=
EXTT0=
EXTT1=
EXTT2=
EXTT3=
EXTT4=
EXTT5=
EXTT6=
EXTT7=
EXTT8=
EXTT9=
EXTT10=
EXTT11=
EXTT12=
EXTT13=
EXTT14=
EXTT15=
EXTT16=
PLAYORDER=
